<?xml version="1.0" standalone="no"?>
<!DOCTYPE svg PUBLIC "-//W3C//DTD SVG 20010904//EN"
 "http://www.w3.org/TR/2001/REC-SVG-20010904/DTD/svg10.dtd">
<svg version="1.0" xmlns="http://www.w3.org/2000/svg"
 width="600.000000pt" height="600.000000pt" viewBox="0 0 600.000000 600.000000"
 preserveAspectRatio="xMidYMid meet">

<g transform="translate(0.000000,600.000000) scale(0.100000,-0.100000)"
fill="#000000" stroke="none">
<path d="M2685 5900 c-523 -64 -990 -245 -1395 -538 -627 -456 -1045 -1131
-1170 -1893 -155 -944 168 -1911 859 -2572 223 -214 446 -369 726 -507 382
-189 713 -276 1133 -299 831 -47 1633 260 2222 849 446 446 726 1004 827 1650
26 166 26 655 0 820 -102 647 -381 1203 -827 1650 -445 444 -1000 724 -1640
826 -120 19 -617 28 -735 14z m-255 -1083 c48 -32 74 -81 73 -136 -1 -25 -45
-291 -98 -590 -53 -298 -95 -545 -93 -547 2 -2 26 4 53 12 134 41 272 -36 291
-162 11 -73 -93 -649 -131 -727 -35 -72 -117 -150 -192 -184 -83 -38 -190 -43
-261 -13 -93 40 -162 145 -162 245 0 18 79 478 175 1022 96 545 175 1002 175
1017 0 19 -7 30 -25 38 -14 6 -25 19 -25 30 0 16 9 18 94 18 80 0 98 -3 126
-23z m791 -853 c42 -21 63 -73 49 -122 -20 -78 -112 -136 -182 -116 -47 14
-81 68 -73 114 10 52 35 89 80 116 47 28 84 30 126 8z m-125 -433 c42 -19 76
-63 88 -113 4 -16 -66 -435 -179 -1075 -102 -576 -184 -1061 -183 -1078 2 -20
11 -33 26 -40 15 -6 22 -17 20 -30 -3 -17 -12 -20 -70 -23 -86 -4 -139 11
-177 49 -64 64 -71 2 134 1162 102 579 185 1063 183 1077 -2 15 -12 29 -25 35
-22 9 -30 34 -16 48 15 15 158 6 199 -12z m1007 -2 c8 -13 -42 -110 -241 -467
-139 -248 -252 -459 -252 -469 1 -46 39 -63 142 -63 101 0 156 22 190 74 20
32 58 50 58 28 0 -12 -20 -124 -26 -145 -5 -16 -28 -17 -336 -15 -286 3 -332
5 -341 19 -7 11 49 119 242 461 138 245 251 456 251 469 0 47 -25 59 -126 59
-90 0 -95 -1 -128 -31 -19 -16 -38 -39 -41 -50 -7 -21 -45 -26 -45 -6 0 16 19
127 25 145 4 10 71 12 311 10 271 -3 308 -5 317 -19z m-442 -1269 c47 -13 124
-81 152 -134 30 -56 32 -222 4 -254 -17 -19 -312 -152 -336 -152 -6 0 -11 8
-11 18 1 10 17 25 43 37 l42 20 32 184 c30 168 31 187 18 208 -20 29 -56 30
-90 1 -24 -22 -30 -49 -104 -473 -91 -514 -91 -495 -3 -495 52 0 92 21 92 48
0 10 -11 34 -25 54 -35 52 -41 90 -21 143 53 137 245 164 286 40 29 -87 -55
-230 -175 -300 -60 -36 -158 -58 -219 -51 -132 17 -235 133 -236 264 0 69 85
557 106 608 40 98 141 191 244 227 52 18 148 22 201 7z"/>
<path d="M2333 3495 c-17 -7 -34 -22 -37 -32 -11 -35 -156 -875 -156 -904 0
-55 84 -63 116 -11 19 30 169 912 158 930 -16 24 -47 31 -81 17z"/>
</g>
</svg>
